<?xml version="1.0" encoding="UTF-8"?>
<svg width="173px" height="38px" viewBox="0 0 173 38" version="1.1" xmlns="http://www.w3.org/2000/svg" xmlns:xlink="http://www.w3.org/1999/xlink">
    <!-- Generator: Sketch 47 (45396) - http://www.bohemiancoding.com/sketch -->
    <title>LOGO(White)_Web</title>
    <desc>Created with Sketch.</desc>
    <defs></defs>
    <g id="Updated-Logo-on-Header-Oct-2017" stroke="none" stroke-width="1" fill="none" fill-rule="evenodd" opacity="0.849999964">
        <g id="Logo" transform="translate(-24.000000, -19.000000)">
            <g id="LOGO(White)_Web" transform="translate(24.000000, 19.000000)">
                <path d="M159.7475,0.24815 L159.7475,3.29565 L164.4325,3.29565 L164.4325,17.51615 L168.091,17.51615 L168.091,3.29565 L172.7755,3.29565 L172.7755,0.24815 L159.7475,0.24815 Z M131.727,10.33515 C132.954,6.35865 133.6975,3.86615 133.9575,2.85865 C134.02,3.14215 134.1245,3.52815 134.27,4.01565 C134.4155,4.50465 135.0665,6.61065 136.223,10.33515 L131.727,10.33515 Z M131.7035,0.17715 L125.6145,17.51615 L129.5555,17.51615 L130.8065,13.40565 L137.0965,13.40565 L138.347,17.51615 L142.2885,17.51615 L136.1755,0.17715 L131.7035,0.17715 Z M123.708,0.24815 L119.6485,0.24815 L114.975,6.11815 L113.5355,8.15015 L113.5355,0.24815 L109.8775,0.24815 L109.8775,17.51615 L113.5355,17.51615 L113.5355,11.35065 L115.0815,10.24015 L119.601,17.51615 L123.755,17.51615 L117.6895,7.89015 L123.708,0.24815 Z M98.926,10.86615 L102.195,10.86615 L102.195,14.46865 C101.408,14.62665 100.633,14.70515 99.8705,14.70515 C98.407,14.70515 97.292,14.21115 96.525,13.22265 C95.758,12.23465 95.374,10.80315 95.374,8.92915 C95.374,7.13365 95.85,5.70515 96.802,4.64165 C97.7545,3.57915 99.021,3.04765 100.602,3.04765 C101.963,3.04765 103.2725,3.36265 104.5315,3.99215 L105.747,1.06315 C104.1025,0.35415 102.396,0.00015 100.6255,0.00015 C97.801,0.00015 95.592,0.77965 93.999,2.33915 C92.406,3.89815 91.61,6.07115 91.61,8.85865 C91.61,11.72465 92.296,13.92415 93.669,15.45515 C95.0415,16.98715 97.03,17.75265 99.634,17.75265 C100.6565,17.75265 101.658,17.67915 102.6375,17.53365 C103.6165,17.38815 104.6615,17.13415 105.771,16.77215 L105.771,7.81915 L98.926,7.81915 L98.926,10.86615 Z M84.7415,8.42165 C84.7415,9.35065 84.8005,10.93765 84.9185,13.18115 L84.836,13.18115 L77.342,0.24815 L72.728,0.24815 L72.728,17.51615 L75.997,17.51615 L75.997,9.38965 C75.997,8.40565 75.9225,6.76015 75.773,4.45265 L75.8795,4.45265 L83.3845,17.51615 L88.034,17.51615 L88.034,0.24815 L84.7415,0.24815 L84.7415,8.42165 Z M64.7275,17.51615 L68.3855,17.51615 L68.3855,0.24815 L64.7275,0.24815 L64.7275,17.51615 Z M52.0655,14.49215 L50.4955,14.49215 L50.4955,3.24815 L52.443,3.24815 C55.7155,3.24815 57.3515,5.10265 57.3515,8.81165 C57.3515,12.59865 55.5895,14.49215 52.0655,14.49215 L52.0655,14.49215 Z M52.254,0.24815 L46.8375,0.24815 L46.8375,17.51615 L51.723,17.51615 C54.775,17.51615 57.11,16.76015 58.7265,15.24865 C60.3435,13.73665 61.152,11.55965 61.152,8.71665 C61.152,6.04765 60.373,3.96865 58.815,2.48065 C57.2575,0.99215 55.0705,0.24815 52.254,0.24815 L52.254,0.24815 Z M39.2025,8.42165 C39.2025,9.35065 39.2615,10.93765 39.379,13.18115 L39.297,13.18115 L31.8035,0.24815 L27.189,0.24815 L27.189,17.51615 L30.458,17.51615 L30.458,9.38965 C30.458,8.40565 30.383,6.76015 30.234,4.45265 L30.34,4.45265 L37.845,17.51615 L42.4945,17.51615 L42.4945,0.24815 L39.2025,0.24815 L39.2025,8.42165 Z M13.6535,17.51615 L23.59,17.51615 L23.59,14.49215 L17.3115,14.49215 L17.3115,10.03965 L23.153,10.03965 L23.153,7.03965 L17.3115,7.03965 L17.3115,3.24815 L23.59,3.24815 L23.59,0.24815 L13.6535,0.24815 L13.6535,17.51615 Z M3.6585,0.24815 L0,0.24815 L0,17.51615 L10.656,17.51615 L10.656,14.49215 L3.6585,14.49215 L3.6585,0.24815 Z" id="Fill-1" fill="#FFFFFF"></path>
                <path d="M145.8325,0.002 L144.5,1.6055 L147.9645,1.6055 C148.3095,1.62 150.57,1.8515 151.428,3.4755 L145.8325,3.4755 L144.5015,5.0605 L151.7585,5.0605 C151.7565,5.0915 151.754,5.1185 151.751,5.1495 C151.751,5.1495 151.8425,8.637 145.2995,8.0175 L145.2995,9.8875 L152.2275,17.3685 L154.892,17.3685 L154.892,16.8345 L148.2305,9.3535 C148.2305,9.3535 153.4825,9.4105 154.3645,5.0875 C154.3645,5.0875 154.364,5.079 154.368,5.0605 L156.605,5.0605 L157.823,3.4755 L154.3595,3.4755 C154.2265,2.877 153.8255,2.141 153.2935,1.6055 L156.7575,1.6055 L157.8205,2.84217094e-14 L145.8325,0.002 Z" id="Fill-1" fill="#FE7A3F"></path>
                <g id="Subtitle" transform="translate(0.000000, 27.500000)" fill="#FFFFFF">
                    <path d="M172.593,6.1965 C172.474,6.0715 172.3035,6.0085 172.082,6.0085 C171.8565,6.0085 171.683,6.069 171.561,6.1895 C171.439,6.31 171.378,6.486 171.378,6.7175 C171.378,6.949 171.4395,7.1275 171.563,7.2525 C171.687,7.3775 171.8595,7.4405 172.082,7.4405 C172.3005,7.4405 172.47,7.3755 172.5905,7.246 C172.7105,7.116 172.771,6.9395 172.771,6.7175 C172.771,6.4955 172.7115,6.322 172.593,6.1965 L172.593,6.1965 Z M172.4945,5.22 L172.7335,0.4415 L171.4345,0.4415 L171.6785,5.22 L172.4945,5.22 Z M168.841,6.0275 C168.635,6.3405 168.341,6.497 167.959,6.497 C167.506,6.497 167.1795,6.355 166.979,6.072 C166.779,5.789 166.679,5.3315 166.679,4.699 L166.679,4.535 C166.679,3.9715 166.78,3.561 166.9815,3.305 C167.1835,3.048 167.503,2.92 167.9405,2.92 C168.3375,2.92 168.639,3.0695 168.8435,3.3685 C169.048,3.667 169.1505,4.1075 169.1505,4.6895 C169.1505,5.269 169.0475,5.7145 168.841,6.0275 L168.841,6.0275 Z M168.227,2.019 C167.539,2.019 167.023,2.2815 166.679,2.8075 L166.623,2.8075 C166.5445,2.441 166.493,2.2095 166.468,2.1125 L165.577,2.1125 L165.577,9.614 L166.679,9.614 L166.679,7.4875 C166.679,7.394 166.657,7.1275 166.6135,6.689 L166.679,6.689 C167.0415,7.162 167.5515,7.398 168.208,7.398 C168.855,7.398 169.3625,7.1605 169.7295,6.685 C170.0975,6.209 170.281,5.547 170.281,4.699 C170.281,3.851 170.1005,3.192 169.7395,2.723 C169.378,2.253 168.8745,2.019 168.227,2.019 L168.227,2.019 Z M162.918,4.699 C162.918,5.35 162.8095,5.814 162.592,6.091 C162.3745,6.368 162.035,6.5065 161.572,6.5065 C161.225,6.5065 160.97,6.407 160.8075,6.208 C160.645,6.0095 160.5635,5.7115 160.5635,5.314 L160.5635,2.1125 L159.4525,2.1125 L159.4525,5.5065 C159.4525,6.142 159.6065,6.616 159.916,6.929 C160.226,7.242 160.695,7.398 161.3235,7.398 C161.6865,7.398 162.009,7.3295 162.292,7.1915 C162.575,7.054 162.793,6.8645 162.946,6.6235 L163.0025,6.6235 L163.1575,7.3045 L164.025,7.3045 L164.025,2.1125 L162.918,2.1125 L162.918,4.699 Z M155.804,6.497 C154.9185,6.497 154.4765,5.8975 154.4765,4.699 C154.4765,4.126 154.5805,3.6865 154.7885,3.38 C154.9965,3.0735 155.332,2.92 155.794,2.92 C156.676,2.92 157.117,3.513 157.117,4.699 C157.117,5.8975 156.679,6.497 155.804,6.497 L155.804,6.497 Z M155.813,2.019 C155.028,2.019 154.42,2.255 153.9885,2.7275 C153.5575,3.2 153.3415,3.857 153.3415,4.699 C153.3415,5.2405 153.4415,5.716 153.642,6.126 C153.8415,6.536 154.1275,6.851 154.4995,7.0695 C154.872,7.289 155.3,7.398 155.785,7.398 C156.5605,7.398 157.1655,7.1605 157.6,6.685 C158.0345,6.209 158.252,5.547 158.252,4.699 C158.252,3.879 158.033,3.2275 157.5955,2.744 C157.1575,2.2605 156.5635,2.019 155.813,2.019 L155.813,2.019 Z M151.2665,2.2905 C150.99,2.4725 150.7655,2.718 150.5935,3.028 L150.5375,3.028 L150.392,2.1125 L149.529,2.1125 L149.529,7.3045 L150.631,7.3045 L150.631,4.591 C150.631,4.131 150.768,3.757 151.041,3.4695 C151.315,3.1815 151.672,3.0375 152.113,3.0375 C152.282,3.0375 152.4445,3.056 152.601,3.0935 L152.7085,2.0655 C152.5645,2.0345 152.382,2.019 152.16,2.019 C151.841,2.019 151.543,2.1095 151.2665,2.2905 L151.2665,2.2905 Z M145.496,4.544 L146.9165,4.544 L146.9165,6.3135 C146.504,6.4045 146.1165,6.45 145.7535,6.45 C145.0345,6.45 144.4835,6.2315 144.101,5.795 C143.7175,5.3585 143.526,4.721 143.526,3.882 C143.526,3.084 143.7385,2.4555 144.164,1.9955 C144.589,1.5355 145.1675,1.3055 145.899,1.3055 C146.456,1.3055 147.0125,1.4335 147.569,1.69 L147.9625,0.756 C147.322,0.4805 146.6435,0.343 145.9275,0.343 C144.814,0.343 143.94,0.655 143.3055,1.2795 C142.6705,1.9035 142.3535,2.7685 142.3535,3.873 C142.3535,4.9935 142.635,5.861 143.1975,6.476 C143.7605,7.0905 144.561,7.398 145.599,7.398 C146.04,7.398 146.4505,7.37 146.8305,7.3135 C147.21,7.2575 147.606,7.162 148.0195,7.0275 L148.0195,3.582 L145.496,3.582 L145.496,4.544 Z M137.751,6.316 C137.6185,6.1895 137.552,5.993 137.552,5.7275 L137.552,2.948 L139.029,2.948 L139.029,2.1125 L137.552,2.1125 L137.552,0.9575 L136.872,0.9575 L136.4965,2.0565 L135.7365,2.4595 L135.7365,2.948 L136.445,2.948 L136.445,5.746 C136.445,6.8475 136.967,7.398 138.0115,7.398 C138.218,7.398 138.417,7.38 138.6095,7.3445 C138.8015,7.3085 138.9585,7.264 139.081,7.2105 L139.081,6.3795 C138.8115,6.464 138.5425,6.5065 138.274,6.5065 C138.0585,6.5065 137.884,6.443 137.751,6.316 L137.751,6.316 Z M133.9575,2.2905 C133.6805,2.4725 133.4565,2.718 133.2845,3.028 L133.228,3.028 L133.0825,2.1125 L132.2195,2.1125 L132.2195,7.3045 L133.322,7.3045 L133.322,4.591 C133.322,4.131 133.4585,3.757 133.732,3.4695 C134.0055,3.1815 134.363,3.0375 134.804,3.0375 C134.973,3.0375 135.135,3.056 135.2915,3.0935 L135.3995,2.0655 C135.2555,2.0345 135.0725,2.019 134.851,2.019 C134.532,2.019 134.234,2.1095 133.9575,2.2905 L133.9575,2.2905 Z M129.5985,5.2765 C129.5985,5.6805 129.4775,5.994 129.235,6.2175 C128.9925,6.4415 128.671,6.5535 128.271,6.5535 C127.996,6.5535 127.7895,6.49 127.652,6.363 C127.5145,6.2365 127.4455,6.0575 127.4455,5.826 C127.4455,5.5065 127.5635,5.2695 127.7995,5.1145 C128.036,4.9595 128.4135,4.873 128.9325,4.854 L129.5985,4.826 L129.5985,5.2765 Z M128.7025,2.019 C128.4055,2.019 128.0895,2.057 127.755,2.1335 C127.4205,2.21 127.1125,2.322 126.8315,2.4695 L127.1875,3.258 C127.413,3.1515 127.647,3.0595 127.8915,2.981 C128.135,2.903 128.39,2.8635 128.6555,2.8635 C128.9805,2.8635 129.221,2.9455 129.3755,3.11 C129.5305,3.274 129.6075,3.522 129.6075,3.854 L129.6075,4.131 L128.712,4.1595 C127.899,4.1845 127.294,4.3325 126.8965,4.605 C126.4995,4.8775 126.301,5.281 126.301,5.816 C126.301,6.32 126.444,6.7095 126.73,6.985 C127.0165,7.2605 127.4145,7.398 127.924,7.398 C128.321,7.398 128.646,7.341 128.8995,7.227 C129.1525,7.1125 129.4045,6.8975 129.6545,6.5815 L129.692,6.5815 L129.9125,7.3045 L130.7005,7.3045 L130.7005,3.8075 C130.7005,3.1905 130.5325,2.7385 130.1965,2.4505 C129.86,2.163 129.362,2.019 128.7025,2.019 L128.7025,2.019 Z M125.72,2.1125 L124.449,2.1125 L122.8825,3.784 L122.259,4.563 L122.2305,4.563 L122.287,3.563 L122.287,-1.77635684e-14 L121.194,-1.77635684e-14 L121.194,7.3045 L122.287,7.3045 L122.287,5.525 L122.892,5.0275 L124.557,7.3045 L125.8515,7.3045 L123.633,4.3425 L125.72,2.1125 Z M117.621,4.807 C117.3085,4.807 117.068,4.7195 116.901,4.544 C116.7335,4.369 116.65,4.1185 116.65,3.793 C116.65,3.4455 116.732,3.1815 116.896,2.9995 C117.0605,2.818 117.302,2.7275 117.621,2.7275 C117.9425,2.7275 118.183,2.819 118.3405,3.002 C118.499,3.1855 118.5775,3.4455 118.5775,3.784 C118.5775,4.466 118.2585,4.807 117.621,4.807 L117.621,4.807 Z M117.208,7.2855 L118.0425,7.2855 C118.4805,7.2855 118.78,7.333 118.941,7.429 C119.1025,7.524 119.183,7.685 119.183,7.91 C119.183,8.1945 119.0355,8.423 118.742,8.5955 C118.448,8.7675 118.0005,8.853 117.4005,8.853 C117.0125,8.853 116.7115,8.7895 116.4975,8.661 C116.2835,8.5325 116.1765,8.3495 116.1765,8.1115 C116.1765,7.858 116.2695,7.657 116.4555,7.5085 C116.6415,7.36 116.8925,7.2855 117.208,7.2855 L117.208,7.2855 Z M118.092,2.049 C117.931,2.029 117.777,2.019 117.63,2.019 C116.9735,2.019 116.468,2.1735 116.113,2.4835 C115.758,2.793 115.581,3.2295 115.581,3.793 C115.581,4.144 115.6645,4.4495 115.832,4.7105 C115.999,4.9725 116.217,5.161 116.4855,5.2765 C116.27,5.408 116.1075,5.5405 115.9985,5.6755 C115.8885,5.8105 115.8335,5.9745 115.8335,6.168 C115.8335,6.322 115.8815,6.468 115.977,6.607 C116.0725,6.747 116.1935,6.8475 116.3405,6.91 C115.978,6.9945 115.6955,7.1455 115.494,7.363 C115.292,7.5805 115.1915,7.849 115.1915,8.168 C115.1915,8.631 115.377,8.988 115.749,9.2385 C116.1215,9.4885 116.661,9.614 117.3675,9.614 C118.2835,9.614 118.984,9.4545 119.4685,9.135 C119.9535,8.816 120.1955,8.362 120.1955,7.7735 C120.1955,7.3135 120.047,6.9615 119.75,6.7175 C119.453,6.4735 119.0185,6.3515 118.4465,6.3515 L117.541,6.3515 C117.244,6.3515 117.04,6.322 116.929,6.2625 C116.818,6.203 116.7625,6.1135 116.7625,5.995 C116.7625,5.7975 116.881,5.6255 117.119,5.478 C117.253,5.5035 117.4035,5.516 117.569,5.516 C118.2165,5.516 118.7245,5.3625 119.0935,5.056 C119.462,4.749 119.6465,4.3285 119.6465,3.793 C119.6465,3.6145 119.6205,3.4455 119.567,3.286 C119.514,3.1265 119.447,2.992 119.3655,2.8825 L120.252,2.718 L120.252,2.1125 L118.456,2.1125 C118.374,2.0905 118.253,2.0695 118.092,2.049 L118.092,2.049 Z M112.4905,2.019 C112.14,2.019 111.821,2.086 111.5335,2.2205 C111.246,2.355 111.0235,2.546 110.8675,2.793 L110.8115,2.793 L110.6565,2.1125 L109.7935,2.1125 L109.7935,7.3045 L110.8955,7.3045 L110.8955,4.718 C110.8955,4.07 111.0035,3.6085 111.2195,3.333 C111.4355,3.058 111.7755,2.92 112.242,2.92 C112.592,2.92 112.8475,3.019 113.0085,3.2155 C113.1695,3.413 113.25,3.7115 113.25,4.1125 L113.25,7.3045 L114.357,7.3045 L114.357,3.9195 C114.357,2.6525 113.7345,2.019 112.4905,2.019 L112.4905,2.019 Z M107.1345,7.3045 L108.237,7.3045 L108.237,2.1125 L107.1345,2.1125 L107.1345,7.3045 Z M107.6925,0.1225 C107.493,0.1225 107.3385,0.1755 107.2305,0.282 C107.1235,0.3885 107.069,0.54 107.069,0.737 C107.069,0.925 107.1235,1.073 107.2305,1.181 C107.3385,1.289 107.493,1.3425 107.6925,1.3425 C107.8865,1.3425 108.0375,1.289 108.145,1.181 C108.253,1.073 108.3075,0.925 108.3075,0.737 C108.3075,0.54 108.253,0.3885 108.145,0.282 C108.0375,0.1755 107.8865,0.1225 107.6925,0.1225 L107.6925,0.1225 Z M104.5225,4.882 C104.5165,5.455 104.4105,5.869 104.204,6.1235 C103.9975,6.3785 103.6675,6.5065 103.214,6.5065 C102.808,6.5065 102.503,6.355 102.2995,6.0535 C102.0965,5.751 101.995,5.312 101.995,4.7365 C101.995,4.1545 102.1,3.7065 102.3095,3.392 C102.519,3.0775 102.817,2.92 103.205,2.92 C103.6585,2.92 103.9915,3.058 104.204,3.333 C104.416,3.6085 104.5225,4.073 104.5225,4.7275 L104.5225,4.882 Z M104.4715,1.892 C104.4715,2.1075 104.498,2.402 104.551,2.7745 L104.495,2.7745 C104.1385,2.2705 103.6195,2.019 102.9375,2.019 C102.2875,2.019 101.7785,2.2555 101.411,2.7295 C101.0435,3.204 100.86,3.8665 100.86,4.718 C100.86,5.566 101.041,6.225 101.404,6.694 C101.767,7.164 102.2715,7.398 102.9185,7.398 C103.6005,7.398 104.118,7.14 104.4715,6.6235 L104.5225,6.6235 L104.715,7.3045 L105.578,7.3045 L105.578,-1.77635684e-14 L104.4715,-1.77635684e-14 L104.4715,1.892 Z M97.7885,2.019 C97.438,2.019 97.1195,2.086 96.832,2.2205 C96.5435,2.355 96.322,2.546 96.166,2.793 L96.109,2.793 L95.9545,2.1125 L95.0915,2.1125 L95.0915,7.3045 L96.1935,7.3045 L96.1935,4.718 C96.1935,4.07 96.3015,3.6085 96.5175,3.333 C96.733,3.058 97.074,2.92 97.54,2.92 C97.89,2.92 98.1455,3.019 98.3065,3.2155 C98.4675,3.413 98.548,3.7115 98.548,4.1125 L98.548,7.3045 L99.655,7.3045 L99.655,3.9195 C99.655,2.6525 99.033,2.019 97.7885,2.019 L97.7885,2.019 Z M90.4205,4.1595 C90.461,3.7335 90.587,3.41 90.798,3.1875 C91.0095,2.9655 91.29,2.854 91.64,2.854 C91.9905,2.854 92.2655,2.9645 92.4655,3.1855 C92.666,3.406 92.769,3.7305 92.775,4.1595 L90.4205,4.1595 Z M91.64,2.019 C90.902,2.019 90.322,2.2615 89.9,2.7465 C89.478,3.231 89.267,3.898 89.267,4.746 C89.267,5.572 89.4945,6.221 89.9495,6.6915 C90.4045,7.163 91.035,7.398 91.842,7.398 C92.195,7.398 92.5095,7.372 92.7845,7.3185 C93.06,7.2655 93.332,7.1745 93.601,7.046 L93.601,6.1495 C93.297,6.2845 93.0135,6.3805 92.7495,6.438 C92.485,6.4965 92.2,6.525 91.8935,6.525 C91.4275,6.525 91.066,6.39 90.81,6.119 C90.5535,5.8485 90.4175,5.461 90.402,4.957 L93.8585,4.957 L93.8585,4.361 C93.8585,3.632 93.66,3.0595 93.263,2.643 C92.866,2.227 92.325,2.019 91.64,2.019 L91.64,2.019 Z M85.628,0.4415 L84.507,0.4415 L84.507,7.3045 L88.531,7.3045 L88.531,6.342 L85.628,6.342 L85.628,0.4415 Z M80.967,2.1125 L79.696,2.1125 L78.129,3.784 L77.5055,4.563 L77.4775,4.563 L77.534,3.563 L77.534,-1.77635684e-14 L76.441,-1.77635684e-14 L76.441,7.3045 L77.534,7.3045 L77.534,5.525 L78.139,5.0275 L79.804,7.3045 L81.0985,7.3045 L78.8795,4.3425 L80.967,2.1125 Z M73.06,2.019 C72.7095,2.019 72.391,2.086 72.1035,2.2205 C71.8155,2.355 71.5935,2.546 71.437,2.793 L71.381,2.793 L71.2265,2.1125 L70.363,2.1125 L70.363,7.3045 L71.465,7.3045 L71.465,4.718 C71.465,4.07 71.573,3.6085 71.789,3.333 C72.0045,3.058 72.3455,2.92 72.8115,2.92 C73.1615,2.92 73.417,3.019 73.5785,3.2155 C73.739,3.413 73.8195,3.7115 73.8195,4.1125 L73.8195,7.3045 L74.9265,7.3045 L74.9265,3.9195 C74.9265,2.6525 74.3045,2.019 73.06,2.019 L73.06,2.019 Z M67.7045,7.3045 L68.8065,7.3045 L68.8065,2.1125 L67.7045,2.1125 L67.7045,7.3045 Z M68.2625,0.1225 C68.062,0.1225 67.9085,0.1755 67.8005,0.282 C67.6925,0.3885 67.6385,0.54 67.6385,0.737 C67.6385,0.925 67.6925,1.073 67.8005,1.181 C67.9085,1.289 68.062,1.3425 68.2625,1.3425 C68.4565,1.3425 68.607,1.289 68.715,1.181 C68.823,1.073 68.8765,0.925 68.8765,0.737 C68.8765,0.54 68.823,0.3885 68.715,0.282 C68.607,0.1755 68.4565,0.1225 68.2625,0.1225 L68.2625,0.1225 Z M64.3045,2.019 C63.948,2.019 63.636,2.0875 63.369,2.2255 C63.1015,2.363 62.893,2.557 62.7425,2.8075 L62.6725,2.8075 C62.7095,2.4695 62.7285,2.1515 62.7285,1.854 L62.7285,-1.77635684e-14 L61.6265,-1.77635684e-14 L61.6265,7.3045 L62.7285,7.3045 L62.7285,4.7275 C62.7285,4.0765 62.837,3.6125 63.0545,3.335 C63.2715,3.0585 63.612,2.92 64.0745,2.92 C64.425,2.92 64.6805,3.019 64.8415,3.2155 C65.0025,3.413 65.083,3.7115 65.083,4.1125 L65.083,7.3045 L66.1895,7.3045 L66.1895,3.9195 C66.1895,2.6525 65.5615,2.019 64.3045,2.019 L64.3045,2.019 Z M55.558,1.4035 L57.5745,1.4035 L57.5745,7.3045 L58.6955,7.3045 L58.6955,1.4035 L60.7125,1.4035 L60.7125,0.4415 L55.558,0.4415 L55.558,1.4035 Z M51.1785,6.187 C51.072,6.9135 50.911,7.699 50.6955,8.5435 L51.5065,8.5435 C51.907,7.6265 52.182,6.877 52.332,6.295 L52.2615,6.187 L51.1785,6.187 Z M47.788,2.019 C47.4315,2.019 47.1195,2.0875 46.8525,2.2255 C46.5845,2.363 46.376,2.557 46.226,2.8075 L46.1555,2.8075 C46.193,2.4695 46.212,2.1515 46.212,1.854 L46.212,-1.77635684e-14 L45.11,-1.77635684e-14 L45.11,7.3045 L46.212,7.3045 L46.212,4.7275 C46.212,4.0765 46.3205,3.6125 46.538,3.335 C46.755,3.0585 47.095,2.92 47.558,2.92 C47.908,2.92 48.164,3.019 48.325,3.2155 C48.486,3.413 48.5665,3.7115 48.5665,4.1125 L48.5665,7.3045 L49.6735,7.3045 L49.6735,3.9195 C49.6735,2.6525 49.0445,2.019 47.788,2.019 L47.788,2.019 Z M43.3655,4.704 C43.1715,4.566 42.8605,4.4145 42.4325,4.2485 C41.9225,4.0515 41.592,3.896 41.44,3.784 C41.2885,3.671 41.213,3.5335 41.213,3.371 C41.213,3.039 41.5035,2.873 42.085,2.873 C42.4665,2.873 42.937,2.989 43.497,3.2205 L43.8535,2.3895 C43.3095,2.1425 42.7325,2.019 42.123,2.019 C41.5065,2.019 41.02,2.1415 40.662,2.387 C40.3035,2.633 40.1245,2.978 40.1245,3.422 C40.1245,3.7915 40.23,4.092 40.4415,4.3235 C40.6525,4.5555 41.0565,4.787 41.6535,5.0185 C41.96,5.1375 42.199,5.2435 42.3715,5.3375 C42.543,5.4315 42.6665,5.522 42.7415,5.6095 C42.817,5.6975 42.854,5.807 42.854,5.938 C42.854,6.3485 42.515,6.5535 41.8365,6.5535 C41.3115,6.5535 40.744,6.4125 40.134,6.1305 L40.134,7.0835 C40.553,7.2935 41.108,7.398 41.799,7.398 C42.487,7.398 43.0155,7.263 43.3845,6.9925 C43.753,6.7215 43.9375,6.3325 43.9375,5.826 C43.9375,5.5755 43.891,5.36 43.797,5.1805 C43.7035,5 43.5595,4.8415 43.3655,4.704 L43.3655,4.704 Z M37.832,5.2765 C37.832,5.6805 37.7105,5.994 37.468,6.2175 C37.226,6.4415 36.9045,6.5535 36.5045,6.5535 C36.229,6.5535 36.023,6.49 35.8855,6.363 C35.748,6.2365 35.679,6.0575 35.679,5.826 C35.679,5.5065 35.797,5.2695 36.033,5.1145 C36.2695,4.9595 36.6465,4.873 37.166,4.854 L37.832,4.826 L37.832,5.2765 Z M36.936,2.019 C36.639,2.019 36.323,2.057 35.9885,2.1335 C35.654,2.21 35.346,2.322 35.0645,2.4695 L35.421,3.258 C35.646,3.1515 35.8805,3.0595 36.1245,2.981 C36.3685,2.903 36.6235,2.8635 36.889,2.8635 C37.214,2.8635 37.454,2.9455 37.609,3.11 C37.7635,3.274 37.841,3.522 37.841,3.854 L37.841,4.131 L36.9455,4.1595 C36.1325,4.1845 35.5275,4.3325 35.1305,4.605 C34.733,4.8775 34.5345,5.281 34.5345,5.816 C34.5345,6.32 34.6775,6.7095 34.964,6.985 C35.25,7.2605 35.6475,7.398 36.1575,7.398 C36.5545,7.398 36.8795,7.341 37.133,7.227 C37.386,7.1125 37.638,6.8975 37.888,6.5815 L37.9255,6.5815 L38.146,7.3045 L38.934,7.3045 L38.934,3.8075 C38.934,3.1905 38.766,2.7385 38.4295,2.4505 C38.0935,2.163 37.5955,2.019 36.936,2.019 L36.936,2.019 Z M31.8665,1.3055 C32.151,1.3055 32.422,1.3465 32.68,1.4295 C32.938,1.5125 33.183,1.6085 33.414,1.7185 L33.8175,0.784 C33.2235,0.49 32.576,0.343 31.8755,0.343 C31.21,0.343 30.63,0.485 30.1355,0.77 C29.642,1.055 29.264,1.4645 29.003,1.9995 C28.742,2.535 28.6115,3.1595 28.6115,3.873 C28.6115,5.0055 28.8805,5.8765 29.418,6.485 C29.956,7.094 30.727,7.398 31.7305,7.398 C32.412,7.398 33.0215,7.2965 33.5595,7.093 L33.5595,6.1305 C33.2655,6.2215 32.9825,6.296 32.7105,6.3535 C32.4385,6.412 32.157,6.4405 31.8665,6.4405 C31.194,6.4405 30.6805,6.225 30.3255,5.7925 C29.971,5.361 29.7935,4.7245 29.7935,3.882 C29.7935,3.078 29.978,2.4475 30.347,1.9905 C30.716,1.5335 31.2225,1.3055 31.8665,1.3055 L31.8665,1.3055 Z M25.409,2.1125 L24.138,2.1125 L22.5715,3.784 L21.9475,4.563 L21.9195,4.563 L21.976,3.563 L21.976,-1.77635684e-14 L20.8835,-1.77635684e-14 L20.8835,7.3045 L21.976,7.3045 L21.976,5.525 L22.581,5.0275 L24.246,7.3045 L25.5405,7.3045 L23.322,4.3425 L25.409,2.1125 Z M17.502,2.019 C17.152,2.019 16.833,2.086 16.5455,2.2205 C16.2575,2.355 16.0355,2.546 15.8795,2.793 L15.823,2.793 L15.668,2.1125 L14.8055,2.1125 L14.8055,7.3045 L15.9075,7.3045 L15.9075,4.718 C15.9075,4.07 16.0155,3.6085 16.231,3.333 C16.447,3.058 16.7875,2.92 17.2535,2.92 C17.6035,2.92 17.8595,3.019 18.0205,3.2155 C18.1815,3.413 18.262,3.7115 18.262,4.1125 L18.262,7.3045 L19.369,7.3045 L19.369,3.9195 C19.369,2.6525 18.7465,2.019 17.502,2.019 L17.502,2.019 Z M12.7045,0.1225 C12.5045,0.1225 12.3505,0.1755 12.2425,0.282 C12.1345,0.3885 12.081,0.54 12.081,0.737 C12.081,0.925 12.1345,1.073 12.2425,1.181 C12.3505,1.289 12.5045,1.3425 12.7045,1.3425 C12.8985,1.3425 13.0495,1.289 13.157,1.181 C13.265,1.073 13.319,0.925 13.319,0.737 C13.319,0.54 13.265,0.3885 13.157,0.282 C13.0495,0.1755 12.8985,0.1225 12.7045,0.1225 L12.7045,0.1225 Z M12.1465,7.3045 L13.249,7.3045 L13.249,2.1125 L12.1465,2.1125 L12.1465,7.3045 Z M8.747,2.019 C8.3905,2.019 8.0785,2.0875 7.811,2.2255 C7.5435,2.363 7.335,2.557 7.185,2.8075 L7.1145,2.8075 C7.152,2.4695 7.171,2.1515 7.171,1.854 L7.171,-1.77635684e-14 L6.0685,-1.77635684e-14 L6.0685,7.3045 L7.171,7.3045 L7.171,4.7275 C7.171,4.0765 7.2795,3.6125 7.497,3.335 C7.714,3.0585 8.054,2.92 8.517,2.92 C8.867,2.92 9.1225,3.019 9.2835,3.2155 C9.4445,3.413 9.525,3.7115 9.525,4.1125 L9.525,7.3045 L10.632,7.3045 L10.632,3.9195 C10.632,2.6525 10.0035,2.019 8.747,2.019 L8.747,2.019 Z M2.84217094e-14,1.4035 L2.017,1.4035 L2.017,7.3045 L3.1375,7.3045 L3.1375,1.4035 L5.1545,1.4035 L5.1545,0.4415 L2.84217094e-14,0.4415 L2.84217094e-14,1.4035 Z" id="Fill-1"></path>
                </g>
            </g>
        </g>
    </g>
</svg>